<svg xmlns="http://www.w3.org/2000/svg" viewBox="0 0 64 64" width="64" height="64" fill="none">
  <path
    d="M12 45L22 40L32 43.5L42 38.5L52 42V50L42 46.5L32 50L22 46.5L12 52V45Z"
    fill="#93c5fd"
  />
  <path
    d="M12 45L22 40L32 43.5L42 38.5L52 42V50L42 46.5L32 50L22 46.5L12 52V45Z"
    stroke="#1d4ed8"
    stroke-width="3"
    stroke-linecap="round"
    stroke-linejoin="round"
  />
  <path d="M22 40V46.5" stroke="#1d4ed8" stroke-width="3" stroke-linecap="round" />
  <path d="M32 43.5V50" stroke="#1d4ed8" stroke-width="3" stroke-linecap="round" />
  <path d="M42 38.5V46.5" stroke="#1d4ed8" stroke-width="3" stroke-linecap="round" />
  <path
    d="M32 8C24.54 8 18.5 14.04 18.5 21.5C18.5 34.3 32 47 32 47C32 47 45.5 34.3 45.5 21.5C45.5 14.04 39.46 8 32 8Z"
    fill="#2563eb"
  />
  <circle cx="32" cy="21.5" r="6.5" fill="#eff6ff" />
  <circle cx="32" cy="21.5" r="3.25" fill="#2563eb" />
</svg>
