<svg xmlns="http://www.w3.org/2000/svg" viewBox="0 0 32 32" width="32" height="32">
  <defs>
    <linearGradient id="pin" x1="0" y1="0" x2="0" y2="1">
      <stop offset="0" stop-color="#3b82f6"/>
      <stop offset="1" stop-color="#1d4ed8"/>
    </linearGradient>
  </defs>
  <!-- map pin -->
  <path fill="url(#pin)" d="M16 2c-6.075 0-11 4.701-11 10.5C5 20.5 16 30 16 30s11-9.5 11-17.5C27 6.701 22.075 2 16 2z"/>
  <!-- eye outline -->
  <path fill="#fff" d="M16 7.5c-4.2 0-7.6 2.6-9 5 1.4 2.4 4.8 5 9 5s7.6-2.6 9-5c-1.4-2.4-4.8-5-9-5z"/>
  <!-- iris -->
  <circle cx="16" cy="12.5" r="3.1" fill="#1d4ed8"/>
  <!-- pupil -->
  <circle cx="16" cy="12.5" r="1.4" fill="#0f172a"/>
  <!-- highlight -->
  <circle cx="17.1" cy="11.4" r="0.7" fill="#fff"/>
</svg>
